<?xml version="1.0" encoding="UTF-8" standalone="no"?>
<svg width="300px" height="300px" viewBox="0 0 300 300" version="1.1" xmlns="http://www.w3.org/2000/svg" xmlns:xlink="http://www.w3.org/1999/xlink" xmlns:sketch="http://www.bohemiancoding.com/sketch/ns">
    <!-- Generator: Sketch 3.3.2 (12043) - http://www.bohemiancoding.com/sketch -->
    <title>logo</title>
    <desc>Created with Sketch.</desc>
    <defs></defs>
    <g id="Page-1" stroke="none" stroke-width="1" fill="none" fill-rule="evenodd" sketch:type="MSPage">
        <g id="logo" sketch:type="MSArtboardGroup">
            <rect id="Rectangle-4" fill="#EEEEEE" sketch:type="MSShapeGroup" x="0" y="0" width="300" height="300"></rect>
            <ellipse id="Oval-2" fill="#D8D8D8" sketch:type="MSShapeGroup" cx="117.5" cy="248" rx="1.5" ry="5"></ellipse>
            <g id="Hammer" sketch:type="MSLayerGroup" transform="translate(27.000000, 60.000000)">
                <path d="M68.5292969,45.9257812 C68.5292969,45.9257812 80.2727998,54.4491377 96.7578125,64.1904297 C117.194505,76.2668408 144.494719,90.821048 160.732422,100.492187 C168.555606,105.151658 178.697333,111.027937 188.663086,117.580078 C198.3854,123.972167 207.916832,131.031042 216.811523,136.373047 C233.828039,146.592885 242.549805,145.208008 245.307617,151.547852 C248.06543,157.887695 232.449219,181.5 227.415039,178.807617 C226.281746,178.201509 218.204193,170.648021 204.492188,161.750977 C190.989178,152.989539 172.917178,142.346222 154.250977,130.441406 C137.112264,119.510783 129.861328,114.708008 104.139648,96.9501953 C78.4179688,79.1923828 56.4589844,67.46875 56.4589844,67.46875 L68.5292969,45.9257812 Z" id="Rectangle-1" fill="#222831" sketch:type="MSShapeGroup"></path>
                <path d="M16,47.3203137 C16,47.3203137 26.4234544,26.2760496 40.1835937,12.5732424 C46.4035421,6.37920973 48.2955038,3.04822222 64.0058594,0.616210946 C79.7162149,-1.81580033 93.5654297,4.30957031 93.5654297,4.30957031 C93.5654297,4.30957031 77.5167321,3.72885441 66.1357422,9.57324241 C56.846087,14.3436842 51.4791765,23.0047956 52.4873047,31.5673821 C52.8874452,34.9659953 66.8639062,43.8002518 68.9482644,44.503219 C69.7916621,44.7876619 70.2988281,44.9326172 70.2988281,44.9326172 L56.6640625,68.6103516 C56.6640625,68.6103516 48.8925788,63.6456816 42.5375977,64.9731457 C37.2148733,66.0849862 29.6218931,79.6977733 29.0439453,82.0678723 C28.5064822,84.2719481 28.4467773,86.7763684 28.4467773,86.7763684 L23.328125,94.5146496 C23.328125,94.5146496 14.7498855,90.606352 10.9404297,88.0878918 C7.02039333,85.496326 0.139648437,79.1845715 0.139648437,79.1845715 C0.139648437,79.1845715 3.45649248,73.365582 5.14550781,70.8164074 C6.60726646,68.6102238 10.839684,63.7650903 12.7773437,61.0000012 C15.608769,56.9594862 16,47.3203137 16,47.3203137 Z" id="Rectangle-2" fill="#393E46" sketch:type="MSShapeGroup"></path>
            </g>
            <g id="Nail" sketch:type="MSLayerGroup" transform="translate(27.000000, 188.000000)" fill="#9B9B9B">
                <ellipse id="Oval-1" sketch:type="MSShapeGroup" cx="10.5" cy="3.5" rx="10.5" ry="3.5"></ellipse>
                <path d="M8,7 L12,7 L11.3276367,56.8300781 L10,62 L8,56.8300781 L8,7 Z" id="Rectangle-4" sketch:type="MSShapeGroup"></path>
            </g>
            <rect id="Rectangle-5" fill="#D8D8D8" sketch:type="MSShapeGroup" x="37" y="248" width="79" height="2"></rect>
        </g>
    </g>
</svg>